<svg xmlns="http://www.w3.org/2000/svg" viewBox="0 0 512 512" width="512" height="512" role="img" aria-label="santi020k Theme terminal mark">
  <defs>
    <linearGradient id="bg" x1="68" y1="34" x2="454" y2="486" gradientUnits="userSpaceOnUse">
      <stop offset="0" stop-color="#21142f" />
      <stop offset="0.52" stop-color="#130c1e" />
      <stop offset="1" stop-color="#07040d" />
    </linearGradient>
    <radialGradient id="glow" cx="46%" cy="34%" r="72%">
      <stop offset="0" stop-color="#8b5cf6" stop-opacity="0.36" />
      <stop offset="0.45" stop-color="#6d28d9" stop-opacity="0.13" />
      <stop offset="1" stop-color="#07040d" stop-opacity="0" />
    </radialGradient>
    <linearGradient id="terminal" x1="136" y1="104" x2="392" y2="414" gradientUnits="userSpaceOnUse">
      <stop offset="0" stop-color="#f5e8ff" />
      <stop offset="0.42" stop-color="#b991ff" />
      <stop offset="1" stop-color="#6d28d9" />
    </linearGradient>
    <linearGradient id="terminal-shadow" x1="122" y1="116" x2="360" y2="390" gradientUnits="userSpaceOnUse">
      <stop offset="0" stop-color="#7c3aed" stop-opacity="0.84" />
      <stop offset="1" stop-color="#2e1065" stop-opacity="0.92" />
    </linearGradient>
    <filter id="soft-shadow" x="-35%" y="-35%" width="170%" height="170%" color-interpolation-filters="sRGB">
      <feDropShadow dx="0" dy="20" stdDeviation="20" flood-color="#000000" flood-opacity="0.54" />
      <feDropShadow dx="0" dy="0" stdDeviation="13" flood-color="#8b5cf6" flood-opacity="0.42" />
    </filter>
    <clipPath id="round">
      <rect width="512" height="512" rx="112" />
    </clipPath>
  </defs>

  <rect width="512" height="512" rx="112" fill="#07040d" />
  <g clip-path="url(#round)">
    <rect width="512" height="512" fill="url(#bg)" />
    <rect width="512" height="512" fill="url(#glow)" />
    <path d="M74 96h364M74 162h364M74 228h364M74 294h364M74 360h364M74 426h364M96 74v364M162 74v364M228 74v364M294 74v364M360 74v364M426 74v364" stroke="#c4b5fd" stroke-width="1.25" opacity="0.07" />
    <g fill="#f5e8ff" opacity="0.075">
      <circle cx="104" cy="106" r="3" />
      <circle cx="226" cy="104" r="3" />
      <circle cx="346" cy="106" r="3" />
      <circle cx="104" cy="226" r="3" />
      <circle cx="226" cy="226" r="3" />
      <circle cx="346" cy="226" r="3" />
      <circle cx="104" cy="346" r="3" />
      <circle cx="226" cy="346" r="3" />
      <circle cx="346" cy="346" r="3" />
    </g>
    <path d="M116 92h222c54 0 90 36 90 90v146c0 54-36 90-90 90H174c-37 0-58-21-58-58Z" fill="#160f22" opacity="0.52" />
    <path d="M116 92h222c54 0 90 36 90 90v146c0 54-36 90-90 90H174c-37 0-58-21-58-58Z" fill="none" stroke="#7c3aed" stroke-width="10" stroke-linecap="round" stroke-linejoin="round" stroke-dasharray="42 30" opacity="0.56" />
    <path d="M116 92h222c54 0 90 36 90 90v146c0 54-36 90-90 90H174c-37 0-58-21-58-58Z" fill="none" stroke="#d8b4fe" stroke-width="2" stroke-linecap="round" stroke-linejoin="round" stroke-dasharray="42 30" opacity="0.18" />
  </g>

  <rect x="10" y="10" width="492" height="492" rx="104" fill="none" stroke="#3b2a58" stroke-width="6" />
  <rect x="24" y="24" width="464" height="464" rx="92" fill="none" stroke="#ffffff" stroke-width="1.5" opacity="0.08" />

  <g filter="url(#soft-shadow)">
    <path d="M180 178l90 78-90 78" fill="none" stroke="#0d0716" stroke-width="84" stroke-linecap="round" stroke-linejoin="round" opacity="0.44" />
    <path d="M316 334h78" fill="none" stroke="#0d0716" stroke-width="84" stroke-linecap="round" opacity="0.44" />
    <path d="M180 178l90 78-90 78" fill="none" stroke="url(#terminal)" stroke-width="56" stroke-linecap="round" stroke-linejoin="round" />
    <path d="M316 334h78" fill="none" stroke="url(#terminal-shadow)" stroke-width="56" stroke-linecap="round" />
    <path d="M180 178l90 78-90 78" fill="none" stroke="#fff7ff" stroke-width="7" stroke-linecap="round" stroke-linejoin="round" opacity="0.62" transform="translate(0 -12)" />
    <path d="M316 334h78" fill="none" stroke="#d8b4fe" stroke-width="7" stroke-linecap="round" opacity="0.42" transform="translate(0 -12)" />
  </g>
</svg>
