<svg xmlns="http://www.w3.org/2000/svg" viewBox="0 0 1200 630" role="img" aria-label="Chrome Theme social card">
  <defs>
    <radialGradient id="glow" cx="0" cy="0" r="1" gradientTransform="translate(1030 60) rotate(130) scale(650)">
      <stop stop-color="#b48df7" stop-opacity="0.3"/>
      <stop offset="1" stop-color="#0d0718" stop-opacity="0"/>
    </radialGradient>
    <pattern id="grid" width="48" height="48" patternUnits="userSpaceOnUse">
      <path d="M48 0H0v48" fill="none" stroke="#494158" stroke-opacity="0.18"/>
    </pattern>
  </defs>
  <rect width="1200" height="630" fill="#0d0718"/>
  <rect width="1200" height="630" fill="url(#glow)"/>
  <rect width="1200" height="630" fill="url(#grid)"/>
  <path d="M0 566c180-62 340-58 480 10 172 84 353 69 542-46 75-46 134-70 178-74v174H0Z" fill="#b48df7" opacity="0.07"/>

  <g transform="translate(72 64) scale(0.675)">
    <rect width="80" height="80" rx="18" fill="#5a0fdb"/>
    <path d="M26 28 L40 40 L26 52" fill="none" stroke="#ffffff" stroke-width="8" stroke-linecap="round" stroke-linejoin="round"/>
    <line x1="48" y1="52" x2="62" y2="52" stroke="#ffffff" stroke-width="8" stroke-linecap="round"/>
  </g>

  <text x="146" y="98" fill="#945df4" font-family="Inter, Arial, sans-serif" font-size="22" font-weight="850">SANTI020K THEME</text>
  <rect x="146" y="116" width="86" height="4" rx="2" fill="#945df4"/>
  <text x="72" y="306" fill="#ffffff" font-family="Inter, Arial, sans-serif" font-size="66" font-weight="850">Chrome Theme</text>
  <text x="76" y="358" fill="#b6b2bd" font-family="Inter, Arial, sans-serif" font-size="25" font-weight="600"><tspan x="76" dy="0">Dark and light browser chrome.</tspan></text>
  <g transform="translate(-300 10) scale(1.3)">
  <g transform="translate(708 150) scale(0.88)">
    <rect width="440" height="318" rx="20" fill="#110c1d" stroke="#494158" stroke-width="2"/>
    <rect width="440" height="62" rx="20" fill="#0d0a15"/>
    <rect x="28" y="22" width="128" height="40" rx="12" fill="#231d30" stroke="#945df4"/>
    <rect x="176" y="22" width="214" height="28" rx="14" fill="#1c1528" stroke="#494158"/>
    <circle cx="406" cy="36" r="8" fill="#b48df7"/>
    <rect x="34" y="102" width="164" height="112" rx="14" fill="#1c1528" stroke="#494158"/>
    <rect x="222" y="102" width="164" height="112" rx="14" fill="#f8f6fd" stroke="#d3cde6"/>
    <path d="M58 242h320" stroke="#494158"/>
    <rect x="60" y="266" width="94" height="28" rx="8" fill="#5a0fdb"/>
    <rect x="172" y="266" width="124" height="28" rx="8" fill="#231d30" stroke="#494158"/>
    <text x="70" y="158" fill="#dfdde3" font-family="Inter, Arial, sans-serif" font-size="18" font-weight="850">Dark</text>
    <text x="258" y="158" fill="#302e36" font-family="Inter, Arial, sans-serif" font-size="18" font-weight="850">Light</text>
  </g>
</g>
</svg>
