<svg xmlns="http://www.w3.org/2000/svg" viewBox="0 0 1200 630" role="img" aria-label="Santi020k Theme social card">
  <defs>
    <linearGradient id="bg" x1="0" x2="1" y1="0" y2="1">
      <stop offset="0" stop-color="#0d0718"/>
      <stop offset="0.54" stop-color="#110c1d"/>
      <stop offset="1" stop-color="#1c1528"/>
    </linearGradient>
    <pattern id="grid" width="44" height="44" patternUnits="userSpaceOnUse">
      <path d="M44 0H0v44" fill="none" stroke="#494158" stroke-opacity="0.3"/>
    </pattern>
  </defs>
  <rect width="1200" height="630" fill="url(#bg)"/>
  <rect width="1200" height="630" fill="url(#grid)" opacity="0.52"/>
  <path d="M0 482c160-66 310-66 450 0 157 74 326 64 506-31 103-54 184-76 244-66v245H0Z" fill="#b48df7" opacity="0.12"/>
  <rect x="64" y="64" width="1072" height="502" rx="26" fill="#110c1d" fill-opacity="0.78" stroke="#494158" stroke-width="2"/>
  <path d="M64 64h1072v8H64Z" fill="#b48df7" opacity="0.72"/>
  
  <g transform="translate(104 112)">
    <rect width="68" height="68" rx="16" fill="#1c1528" stroke="#494158" stroke-width="2"/>
    <path d="M34 12.24 51.68 53.04 16.32 53.04Z" fill="#945df4" opacity="0.94"/>
    <path d="M34 12.24 16.32 53.04M34 12.24l17.68 40.8M16.32 53.04h35.36" fill="none" stroke="#dfdde3" stroke-linecap="round" stroke-linejoin="round" stroke-width="4"/>
  </g>

  <text x="196" y="144" fill="#b48df7" font-family="Inter, Arial, sans-serif" font-size="24" font-weight="850" letter-spacing="0">Chrome browser theme</text>
  <rect x="196" y="166" width="96" height="4" rx="2" fill="#b48df7"/>
  <text x="104" y="318" fill="#dfdde3" font-family="Inter, Arial, sans-serif" font-size="64" font-weight="850" letter-spacing="0">Santi020k Theme</text>
  <text x="108" y="374" fill="#b6b2bd" font-family="Inter, Arial, sans-serif" font-size="27" font-weight="550" letter-spacing="0"><tspan x="108" dy="0">Browser chrome matched to the same</tspan><tspan x="108" dy="38">indigo, lavender, and violet palette.</tspan></text>
  <text x="104" y="496" fill="#8d8896" font-family="Inter, Arial, sans-serif" font-size="24" font-weight="800" letter-spacing="0">chrome.santi020k.com</text>
  
  <g transform="translate(708 150) scale(0.88)">
    <rect width="440" height="318" rx="20" fill="#110c1d" stroke="#494158" stroke-width="2"/>
    <rect width="440" height="62" rx="20" fill="#0d0a15"/>
    <rect x="28" y="22" width="128" height="40" rx="12" fill="#231d30" stroke="#945df4"/>
    <rect x="176" y="22" width="214" height="28" rx="14" fill="#1c1528" stroke="#494158"/>
    <circle cx="406" cy="36" r="8" fill="#b48df7"/>
    <rect x="34" y="102" width="164" height="112" rx="14" fill="#1c1528" stroke="#494158"/>
    <rect x="222" y="102" width="164" height="112" rx="14" fill="#f8f6fd" stroke="#d3cde6"/>
    <path d="M58 242h320" stroke="#494158"/>
    <rect x="60" y="266" width="94" height="28" rx="8" fill="#5a0fdb"/>
    <rect x="172" y="266" width="124" height="28" rx="8" fill="#231d30" stroke="#494158"/>
    <text x="70" y="158" fill="#dfdde3" font-family="Inter, Arial, sans-serif" font-size="18" font-weight="850">Dark</text>
    <text x="258" y="158" fill="#302e36" font-family="Inter, Arial, sans-serif" font-size="18" font-weight="850">Light</text>
  </g>

</svg>
