<svg xmlns="http://www.w3.org/2000/svg" viewBox="0 0 512 512" width="512" height="512" role="img" aria-label="santi020k Theme logo">
  <defs>
    <linearGradient id="bg" x1="64" y1="32" x2="448" y2="480" gradientUnits="userSpaceOnUse">
      <stop offset="0" stop-color="#2b1748" />
      <stop offset="0.5" stop-color="#120c1e" />
      <stop offset="1" stop-color="#07040d" />
    </linearGradient>
    <radialGradient id="halo" cx="50%" cy="30%" r="70%">
      <stop offset="0" stop-color="#a78bfa" stop-opacity="0.34" />
      <stop offset="0.48" stop-color="#7c3aed" stop-opacity="0.12" />
      <stop offset="1" stop-color="#07040d" stop-opacity="0" />
    </radialGradient>
    <linearGradient id="mark" x1="154" y1="112" x2="358" y2="400" gradientUnits="userSpaceOnUse">
      <stop offset="0" stop-color="#f4e7ff" />
      <stop offset="0.42" stop-color="#b991ff" />
      <stop offset="1" stop-color="#6d28d9" />
    </linearGradient>
    <linearGradient id="edge" x1="171" y1="96" x2="341" y2="416" gradientUnits="userSpaceOnUse">
      <stop offset="0" stop-color="#ffffff" stop-opacity="0.68" />
      <stop offset="0.5" stop-color="#d8b4fe" stop-opacity="0.18" />
      <stop offset="1" stop-color="#4c1d95" stop-opacity="0.62" />
    </linearGradient>
    <filter id="shadow" x="-40%" y="-40%" width="180%" height="180%" color-interpolation-filters="sRGB">
      <feDropShadow dx="0" dy="18" stdDeviation="18" flood-color="#000000" flood-opacity="0.58" />
      <feDropShadow dx="0" dy="0" stdDeviation="10" flood-color="#9f7aea" flood-opacity="0.34" />
    </filter>
    <clipPath id="round">
      <rect width="512" height="512" rx="116" />
    </clipPath>
  </defs>

  <rect width="512" height="512" fill="#07040d" />
  <g clip-path="url(#round)">
    <rect width="512" height="512" fill="url(#bg)" />
    <rect width="512" height="512" fill="url(#halo)" />
    <path d="M96 150h320M96 256h320M96 362h320M150 96v320M256 96v320M362 96v320" stroke="#c4b5fd" stroke-width="1.5" opacity="0.08" />
    <path d="M-10 116C86 72 172 66 262 98c78 28 149 22 260-39v112c-79 43-163 49-252 17C184 157 93 166-10 220Z" fill="#7c3aed" opacity="0.12" />
  </g>

  <rect x="10" y="10" width="492" height="492" rx="106" fill="none" stroke="#3b2a58" stroke-width="6" />
  <rect x="23" y="23" width="466" height="466" rx="94" fill="none" stroke="#ffffff" stroke-width="1.5" opacity="0.08" />

  <g filter="url(#shadow)">
    <path d="M348 114H221c-51 0-87 32-87 76 0 43 31 69 80 82l79 20c21 5 31 15 31 32 0 20-17 34-45 34H151" fill="none" stroke="#120c1e" stroke-width="82" stroke-linecap="round" stroke-linejoin="round" opacity="0.44" />
    <path d="M348 114H221c-51 0-87 32-87 76 0 43 31 69 80 82l79 20c21 5 31 15 31 32 0 20-17 34-45 34H151" fill="none" stroke="url(#mark)" stroke-width="64" stroke-linecap="round" stroke-linejoin="round" />
    <path d="M348 114H221c-51 0-87 32-87 76 0 43 31 69 80 82l79 20c21 5 31 15 31 32 0 20-17 34-45 34H151" fill="none" stroke="url(#edge)" stroke-width="8" stroke-linecap="round" stroke-linejoin="round" opacity="0.74" transform="translate(0 -13)" />
  </g>

  <g fill="#f5e8ff">
    <circle cx="365" cy="148" r="9" opacity="0.9" />
    <path d="M386 174l8 18 18 8-18 8-8 18-8-18-18-8 18-8Z" opacity="0.88" />
  </g>
</svg>
