<svg xmlns="http://www.w3.org/2000/svg" width="3840" height="2160" viewBox="0 0 3840 2160" role="img" aria-label="Santi020k dark Chrome new tab background">
  <defs>
    <linearGradient id="canvas" x1="0" y1="0" x2="1" y2="1">
      <stop offset="0" stop-color="#151221"/>
      <stop offset="0.48" stop-color="#0d0a15"/>
      <stop offset="1" stop-color="#100b1c"/>
    </linearGradient>
    <radialGradient id="violetGlow" cx="64%" cy="48%" r="48%">
      <stop offset="0" stop-color="#752df0" stop-opacity="0.28"/>
      <stop offset="0.42" stop-color="#945df4" stop-opacity="0.12"/>
      <stop offset="1" stop-color="#0d0a15" stop-opacity="0"/>
    </radialGradient>
    <radialGradient id="leftGlow" cx="12%" cy="24%" r="42%">
      <stop offset="0" stop-color="#7daea3" stop-opacity="0.1"/>
      <stop offset="1" stop-color="#0d0a15" stop-opacity="0"/>
    </radialGradient>
    <pattern id="grid" width="80" height="80" patternUnits="userSpaceOnUse">
      <path d="M80 0H0V80" fill="none" stroke="#dfdde3" stroke-opacity="0.035" stroke-width="1"/>
    </pattern>
    <pattern id="microGrid" width="24" height="24" patternUnits="userSpaceOnUse">
      <path d="M24 0H0V24" fill="none" stroke="#945df4" stroke-opacity="0.035" stroke-width="1"/>
    </pattern>
    <filter id="softBlur" x="-20%" y="-20%" width="140%" height="140%">
      <feGaussianBlur stdDeviation="34"/>
    </filter>
    <filter id="panelShadow" x="-20%" y="-20%" width="140%" height="140%">
      <feDropShadow dx="0" dy="34" stdDeviation="42" flood-color="#05020a" flood-opacity="0.45"/>
    </filter>
  </defs>

  <rect width="3840" height="2160" fill="url(#canvas)"/>
  <rect width="3840" height="2160" fill="url(#grid)"/>
  <rect width="3840" height="2160" fill="url(#violetGlow)"/>
  <rect width="3840" height="2160" fill="url(#leftGlow)"/>

  <g opacity="0.52" filter="url(#softBlur)">
    <path d="M1840 520 C2208 376 2788 384 3144 540 L3144 1540 C2776 1662 2208 1676 1842 1538 Z" fill="#752df0" opacity="0.11"/>
    <path d="M1990 638 C2328 532 2838 530 3068 638 L3068 1422 C2766 1518 2332 1538 1990 1422 Z" fill="#b48df7" opacity="0.08"/>
  </g>

  <g transform="translate(1900 500)" filter="url(#panelShadow)">
    <rect x="0" y="0" width="980" height="980" rx="104" fill="#151221" fill-opacity="0.68" stroke="#945df4" stroke-opacity="0.27" stroke-width="4" stroke-dasharray="40 38"/>
    <rect x="72" y="76" width="836" height="836" rx="70" fill="#0d0a15" fill-opacity="0.24" stroke="#231d30" stroke-opacity="0.72"/>
    <rect x="72" y="76" width="836" height="836" rx="70" fill="url(#microGrid)" opacity="0.74"/>
  </g>

  <g transform="translate(2286 806)" opacity="0.9">
    <path d="M48 0 L304 224 L48 448" fill="none" stroke="#b48df7" stroke-width="32" stroke-linecap="round" stroke-linejoin="round" opacity="0.34"/>
    <path d="M48 0 L304 224 L48 448" fill="none" stroke="#752df0" stroke-width="16" stroke-linecap="round" stroke-linejoin="round" opacity="0.28"/>
    <path d="M450 448 H700" fill="none" stroke="#b48df7" stroke-width="32" stroke-linecap="round" opacity="0.36"/>
    <path d="M450 448 H700" fill="none" stroke="#752df0" stroke-width="16" stroke-linecap="round" opacity="0.28"/>
  </g>

  <g transform="translate(760 470)" opacity="0.16">
    <rect x="0" y="0" width="1030" height="116" rx="26" fill="#231d30"/>
    <rect x="44" y="38" width="224" height="20" rx="10" fill="#945df4"/>
    <rect x="314" y="38" width="530" height="20" rx="10" fill="#dfdde3" opacity="0.42"/>
    <rect x="44" y="72" width="392" height="14" rx="7" fill="#8d8896"/>
  </g>

  <g transform="translate(800 680)" opacity="0.13">
    <rect x="0" y="0" width="940" height="360" rx="38" fill="#151221" stroke="#231d30"/>
    <path d="M64 84H476M64 142H720M64 200H586M64 258H796M64 316H418" stroke="#dfdde3" stroke-width="16" stroke-linecap="round"/>
    <path d="M64 84H204M64 200H268M64 316H170" stroke="#945df4" stroke-width="16" stroke-linecap="round"/>
  </g>

  <g opacity="0.23">
    <path d="M0 1680 C570 1530 1058 1568 1510 1748 C1988 1940 2468 1972 3146 1762 C3430 1674 3666 1652 3840 1688" fill="none" stroke="#231d30" stroke-width="3"/>
    <path d="M0 1746 C602 1602 1074 1628 1510 1808 C1982 2004 2478 2034 3146 1820 C3430 1728 3666 1714 3840 1748" fill="none" stroke="#945df4" stroke-opacity="0.2" stroke-width="2"/>
  </g>
</svg>
