<svg xmlns="http://www.w3.org/2000/svg" width="1280" height="720" viewBox="0 0 1280 720" role="img" aria-labelledby="title desc">
  <title id="title">santi020k dark theme preview</title>
  <desc id="desc">A stylized VS Code editor preview using the santi020k dark color palette.</desc>
  <rect width="1280" height="720" fill="#0e0919"/>
  <rect x="0" y="0" width="1280" height="48" fill="#0e0919"/>
  <rect x="0" y="48" width="76" height="672" fill="#0e0919"/>
  <rect x="76" y="48" width="260" height="672" fill="#170f25"/>
  <rect x="336" y="48" width="944" height="42" fill="#0e0919"/>
  <rect x="336" y="90" width="944" height="630" fill="#120c1e"/>
  <rect x="356" y="48" width="210" height="42" fill="#120c1e"/>
  <rect x="356" y="88" width="210" height="2" fill="#8b52d6"/>
  <text x="382" y="75" fill="#e8e0f0" font-family="Inter, Segoe UI, sans-serif" font-size="15">theme.ts</text>
  <circle cx="28" cy="24" r="6" fill="#ea6962"/>
  <circle cx="50" cy="24" r="6" fill="#e8b44a"/>
  <circle cx="72" cy="24" r="6" fill="#7daea3"/>
  <rect x="22" y="82" width="32" height="32" rx="8" fill="#261d3a"/>
  <rect x="22" y="134" width="32" height="32" rx="8" fill="#1e1530"/>
  <rect x="22" y="186" width="32" height="32" rx="8" fill="#1e1530"/>
  <text x="104" y="92" fill="#b8a8d8" font-family="Inter, Segoe UI, sans-serif" font-size="13" font-weight="700">EXPLORER</text>
  <text x="104" y="134" fill="#e8e0f0" font-family="Inter, Segoe UI, sans-serif" font-size="15">santi020k-theme</text>
  <text x="126" y="176" fill="#c8b8e8" font-family="Inter, Segoe UI, sans-serif" font-size="14">themes</text>
  <text x="146" y="214" fill="#d4a8ff" font-family="Inter, Segoe UI, sans-serif" font-size="14">santi020k-dark.json</text>
  <text x="146" y="250" fill="#7868a0" font-family="Inter, Segoe UI, sans-serif" font-size="14">santi020k-light.json</text>
  <text x="126" y="304" fill="#c8b8e8" font-family="Inter, Segoe UI, sans-serif" font-size="14">scripts</text>
  <text x="126" y="340" fill="#c8b8e8" font-family="Inter, Segoe UI, sans-serif" font-size="14">website</text>
  <g font-family="JetBrains Mono, SFMono-Regular, Consolas, monospace" font-size="20">
    <text x="376" y="142" fill="#584878">01</text>
    <text x="424" y="142" fill="#a06ee6" font-style="italic">const</text>
    <text x="488" y="142" fill="#e8e0f0">palette</text>
    <text x="584" y="142" fill="#9070c0">=</text>
    <text x="620" y="142" fill="#9070c0">{</text>
    <text x="376" y="184" fill="#584878">02</text>
    <text x="464" y="184" fill="#b890f0">surface</text>
    <text x="548" y="184" fill="#9070c0">:</text>
    <text x="584" y="184" fill="#d4a8ff">'#120c1e'</text>
    <text x="376" y="226" fill="#584878">03</text>
    <text x="464" y="226" fill="#b890f0">accent</text>
    <text x="536" y="226" fill="#9070c0">:</text>
    <text x="572" y="226" fill="#d4a8ff">'#c090ff'</text>
    <text x="376" y="268" fill="#584878">04</text>
    <text x="464" y="268" fill="#b890f0">muted</text>
    <text x="524" y="268" fill="#9070c0">:</text>
    <text x="560" y="268" fill="#d4a8ff">'#7868a0'</text>
    <text x="376" y="310" fill="#584878">05</text>
    <text x="424" y="310" fill="#9070c0">}</text>
    <text x="376" y="374" fill="#584878">06</text>
    <text x="424" y="374" fill="#584878" font-style="italic">// Modern workbench surfaces stay violet and calm.</text>
    <text x="376" y="416" fill="#584878">07</text>
    <text x="424" y="416" fill="#a06ee6" font-style="italic">export</text>
    <text x="512" y="416" fill="#a06ee6" font-style="italic">function</text>
    <text x="624" y="416" fill="#c090ff">applyTheme</text>
    <text x="748" y="416" fill="#9070c0">()</text>
    <text x="788" y="416" fill="#9070c0">{</text>
    <text x="376" y="458" fill="#584878">08</text>
    <text x="464" y="458" fill="#a06ee6" font-style="italic">return</text>
    <text x="548" y="458" fill="#e8e0f0">palette</text>
    <text x="376" y="500" fill="#584878">09</text>
    <text x="424" y="500" fill="#9070c0">}</text>
  </g>
  <rect x="336" y="660" width="944" height="60" fill="#0e0919"/>
  <text x="376" y="696" fill="#b8a8d8" font-family="Inter, Segoe UI, sans-serif" font-size="15">santi020k dark</text>
  <text x="1110" y="696" fill="#c090ff" font-family="Inter, Segoe UI, sans-serif" font-size="15">validated</text>
</svg>
