<svg xmlns="http://www.w3.org/2000/svg" viewBox="0 0 1200 630" role="img" aria-label="Starship Prompt social card">
  <defs>
    <radialGradient id="glow" cx="0" cy="0" r="1" gradientTransform="translate(1030 60) rotate(130) scale(650)">
      <stop stop-color="#945df4" stop-opacity="0.3"/>
      <stop offset="1" stop-color="#0d0718" stop-opacity="0"/>
    </radialGradient>
    <pattern id="grid" width="48" height="48" patternUnits="userSpaceOnUse">
      <path d="M48 0H0v48" fill="none" stroke="#494158" stroke-opacity="0.18"/>
    </pattern>
  </defs>
  <rect width="1200" height="630" fill="#0d0718"/>
  <rect width="1200" height="630" fill="url(#glow)"/>
  <rect width="1200" height="630" fill="url(#grid)"/>
  <path d="M0 566c180-62 340-58 480 10 172 84 353 69 542-46 75-46 134-70 178-74v174H0Z" fill="#945df4" opacity="0.07"/>

  <g transform="translate(72 64) scale(0.675)">
    <rect width="80" height="80" rx="18" fill="#5a0fdb"/>
    <path d="M26 28 L40 40 L26 52" fill="none" stroke="#ffffff" stroke-width="8" stroke-linecap="round" stroke-linejoin="round"/>
    <line x1="48" y1="52" x2="62" y2="52" stroke="#ffffff" stroke-width="8" stroke-linecap="round"/>
  </g>

  <text x="146" y="98" fill="#945df4" font-family="Inter, Arial, sans-serif" font-size="22" font-weight="850">SANTI020K THEME</text>
  <rect x="146" y="116" width="86" height="4" rx="2" fill="#945df4"/>
  <text x="72" y="306" fill="#ffffff" font-family="Inter, Arial, sans-serif" font-size="66" font-weight="850">Starship Prompt</text>
  <text x="76" y="358" fill="#b6b2bd" font-family="Inter, Arial, sans-serif" font-size="25" font-weight="600"><tspan x="76" dy="0">Powerline shape. Santi020k focus.</tspan></text>
  <g transform="translate(-192 25) scale(1.2)">
  <g transform="translate(668 164)">
    <rect width="430" height="270" rx="18" fill="#0b0712" stroke="#494158" stroke-width="2"/>
    <rect width="430" height="44" rx="18" fill="#181322"/>
    <circle cx="26" cy="22" r="5" fill="#ea6962"/><circle cx="46" cy="22" r="5" fill="#e8b44a"/><circle cx="66" cy="22" r="5" fill="#7daea3"/>
    <g transform="translate(24 84)">
      <path d="M0 0h50l14 17-14 17H0a17 17 0 0 1-17-17A17 17 0 0 1 0 0Z" fill="#602cba"/>
      <g transform="translate(8 5) scale(1)"><path d="M18.71 19.5c-.83 1.24-1.71 2.45-3.05 2.47-1.31.02-1.73-.81-3.22-.81-1.5 0-1.97.79-3.21.83-1.29.05-2.27-1.32-3.1-2.55-1.69-2.44-2.98-6.9-1.25-9.91.86-1.5 2.4-2.45 4.07-2.47 1.27-.02 2.47.86 3.22.86.75 0 2.15-1.06 3.63-.9.62.03 2.35.25 3.46 1.88-.09.06-2.07 1.22-2.05 3.65.03 2.9 2.54 3.87 2.57 3.88-.02.07-.4 1.39-1.32 2.75l.25.32ZM14.78 5.45c.69-.83 1.15-1.98 1.03-3.12-1 .04-2.21.67-2.91 1.5-.63.73-1.18 1.9-1.04 3.02 1.12.09 2.23-.57 2.92-1.4Z" fill="#fff"/></g>
      <path d="M50 0h148l14 17-14 17H50l14-17Z" fill="#752df0"/>
      <text x="75" y="23" fill="#fff" font-family="monospace" font-size="15">~/Projects/theme</text>
      <path d="M198 0h92l14 17-14 17h-92l14-17Z" fill="#945df4"/>
      <text x="224" y="23" fill="#17141d" font-family="monospace" font-size="15">main +2</text>
      <path d="M290 0h95a17 17 0 0 1 17 17 17 17 0 0 1-17 17h-95l14-17Z" fill="#89b8c8"/>
      <text x="322" y="23" fill="#17141d" font-family="monospace" font-size="15">node v22</text>
    </g>
    <text x="26" y="166" fill="#b48df7" font-family="monospace" font-size="22">›</text>
    <text x="52" y="166" fill="#dfdde3" font-family="monospace" font-size="17">pnpm run focus</text>
    <text x="26" y="208" fill="#726c7f" font-family="monospace" font-size="15">Calm contrast. Durable focus.</text>
  </g>
</g>
</svg>
