<svg xmlns="http://www.w3.org/2000/svg" viewBox="0 0 1200 630" role="img" aria-label="Theme Family social card">
  <defs>
    <radialGradient id="glow" cx="0" cy="0" r="1" gradientTransform="translate(1030 60) rotate(130) scale(650)">
      <stop stop-color="#945df4" stop-opacity="0.3"/>
      <stop offset="1" stop-color="#0d0718" stop-opacity="0"/>
    </radialGradient>
    <pattern id="grid" width="48" height="48" patternUnits="userSpaceOnUse">
      <path d="M48 0H0v48" fill="none" stroke="#494158" stroke-opacity="0.18"/>
    </pattern>
  </defs>
  <rect width="1200" height="630" fill="#0d0718"/>
  <rect width="1200" height="630" fill="url(#glow)"/>
  <rect width="1200" height="630" fill="url(#grid)"/>
  <path d="M0 566c180-62 340-58 480 10 172 84 353 69 542-46 75-46 134-70 178-74v174H0Z" fill="#945df4" opacity="0.07"/>

  <g transform="translate(72 64) scale(0.675)">
    <rect width="80" height="80" rx="18" fill="#5a0fdb"/>
    <path d="M26 28 L40 40 L26 52" fill="none" stroke="#ffffff" stroke-width="8" stroke-linecap="round" stroke-linejoin="round"/>
    <line x1="48" y1="52" x2="62" y2="52" stroke="#ffffff" stroke-width="8" stroke-linecap="round"/>
  </g>

  <text x="146" y="98" fill="#945df4" font-family="Inter, Arial, sans-serif" font-size="22" font-weight="850">SANTI020K THEME</text>
  <rect x="146" y="116" width="86" height="4" rx="2" fill="#945df4"/>
  <text x="72" y="306" fill="#ffffff" font-family="Inter, Arial, sans-serif" font-size="66" font-weight="850">Theme Family</text>
  <text x="76" y="358" fill="#b6b2bd" font-family="Inter, Arial, sans-serif" font-size="25" font-weight="600"><tspan x="76" dy="0">One violet system across every surface.</tspan></text>
  <g transform="translate(-300 10) scale(1.3)">
  <g transform="translate(722 144) scale(0.88)">
    <rect width="190" height="148" rx="18" fill="#0b0712" stroke="#494158" stroke-width="2"/>
    <rect x="26" y="34" width="92" height="12" rx="6" fill="#945df4"/>
    <rect x="26" y="66" width="132" height="10" rx="5" fill="#b6b2bd" opacity="0.58"/>
    <rect x="26" y="94" width="88" height="28" rx="8" fill="#5a0fdb"/>
    <rect x="220" y="48" width="190" height="148" rx="18" fill="#110c1d" stroke="#494158" stroke-width="2"/>
    <rect x="244" y="78" width="142" height="30" rx="15" fill="#1c1528" stroke="#494158"/>
    <rect x="244" y="128" width="64" height="38" rx="10" fill="#945df4"/>
    <rect x="322" y="128" width="64" height="38" rx="10" fill="#f8f6fd"/>
    <rect x="84" y="220" width="250" height="86" rx="18" fill="#1c1528" stroke="#494158" stroke-width="2"/>
    <circle cx="130" cy="263" r="20" fill="#945df4"/>
    <rect x="170" y="244" width="116" height="12" rx="6" fill="#dfdde3" opacity="0.82"/>
    <rect x="170" y="272" width="92" height="10" rx="5" fill="#b6b2bd" opacity="0.62"/>
  </g>
</g>
</svg>
