<svg xmlns="http://www.w3.org/2000/svg" width="1280" height="720" viewBox="0 0 1280 720" role="img" aria-labelledby="title desc">
  <title id="title">santi020k hc dark theme preview</title>
  <desc id="desc">A realistic VS Code editor preview using the santi020k hc dark color palette.</desc>
  <rect x="0" y="0" width="1280" height="720" fill="#07040d"/>
  <rect x="40" y="38" width="1200" height="640" rx="22" fill="#020105dd"/>
  <rect x="40" y="28" width="1200" height="48" rx="18" fill="#0b0614"/>
  <rect x="40" y="58" width="1200" height="620" fill="#0b0614"/>
  <circle cx="72" cy="52" r="6" fill="#ff7070"/>
  <circle cx="94" cy="52" r="6" fill="#ffc060"/>
  <circle cx="116" cy="52" r="6" fill="#8affb2"/>
  <text x="548" y="57" fill="#9b8bc4" font-family="Inter, Segoe UI, Arial, sans-serif" font-size="13" font-weight="700">santi020k-theme</text>

  <rect x="40" y="76" width="70" height="620" fill="#08040f"/>
  
  <rect x="19" y="93" width="38" height="38" rx="8" fill="#201139"/>
  <path d="M3 3h7v7H3zM14 3h7v7h-7zM3 14h7v7H3zM14 14h7v7h-7z" transform="translate(29 103)" fill="none" stroke="#f7f2ff" stroke-width="2" stroke-linecap="round" stroke-linejoin="round"/>

  
  
  <path d="M11 4a7 7 0 1 0 0 14 7 7 0 0 0 0-14zM20 20l-4.3-4.3" transform="translate(29 161)" fill="none" stroke="#9b8bc4" stroke-width="2" stroke-linecap="round" stroke-linejoin="round"/>

  
  
  <path d="M6 3v12M18 9V3M6 15a3 3 0 1 0 0 6 3 3 0 0 0 0-6zM18 3a3 3 0 1 0 0 6 3 3 0 0 0 0-6zM6 7h6a6 6 0 0 1 6 6v2" transform="translate(29 219)" fill="none" stroke="#9b8bc4" stroke-width="2" stroke-linecap="round" stroke-linejoin="round"/>

  
  
  <path d="M12 2l8 4v6c0 5-3.4 8-8 10-4.6-2-8-5-8-10V6z" transform="translate(29 277)" fill="none" stroke="#9b8bc4" stroke-width="2" stroke-linecap="round" stroke-linejoin="round"/>


  <rect x="110" y="76" width="264" height="620" fill="#10091d"/>
  <rect x="373" y="76" width="1" height="620" fill="#602cba" opacity="0.8"/>
  <text x="134" y="118" fill="#9b8bc4" font-family="Inter, Segoe UI, Arial, sans-serif" font-size="12" font-weight="800">EXPLORER</text>
  <text x="134" y="154" fill="#f4eeff" font-family="Inter, Segoe UI, Arial, sans-serif" font-size="14" font-weight="700">SANTI020K-THEME</text>
  <text x="134" y="196" fill="#9b8bc4" font-family="Inter, Segoe UI, Arial, sans-serif" font-size="13">v packages</text>
  <text x="154" y="226" fill="#f4eeff" font-family="Inter, Segoe UI, Arial, sans-serif" font-size="13">v santi020k-theme</text>
  <text x="174" y="256" fill="#f4eeff" font-family="Inter, Segoe UI, Arial, sans-serif" font-size="13">v themes</text>
  <rect x="142" y="269" width="210" height="30" rx="6" fill="#190d2c"/>
  <text x="176" y="290" fill="#a56dff" font-family="Inter, Segoe UI, Arial, sans-serif" font-size="13" font-weight="700">santi020k-hc.json</text>
  <text x="176" y="324" fill="#9b8bc4" font-family="Inter, Segoe UI, Arial, sans-serif" font-size="13">token-colors.json</text>
  <text x="154" y="374" fill="#f4eeff" font-family="Inter, Segoe UI, Arial, sans-serif" font-size="13">v scripts</text>
  <text x="176" y="404" fill="#9b8bc4" font-family="Inter, Segoe UI, Arial, sans-serif" font-size="13">generate-variants.mjs</text>
  <text x="176" y="434" fill="#9b8bc4" font-family="Inter, Segoe UI, Arial, sans-serif" font-size="13">validate-themes.mjs</text>

  <rect x="374" y="76" width="866" height="42" fill="#0b0614"/>
  <rect x="394" y="76" width="188" height="42" fill="#0d0718"/>
  <rect x="394" y="115" width="188" height="3" fill="#a56dff"/>
  <text x="424" y="102" fill="#f7f2ff" font-family="Inter, Segoe UI, Arial, sans-serif" font-size="13">contrast.ts</text>
  <text x="622" y="102" fill="#9b8bc4" font-family="Inter, Segoe UI, Arial, sans-serif" font-size="13">README.md</text>
  <text x="744" y="102" fill="#9b8bc4" font-family="Inter, Segoe UI, Arial, sans-serif" font-size="13">package.json</text>

  <rect x="374" y="118" width="866" height="480" fill="#0d0718"/>
  <rect x="374" y="118" width="866" height="34" fill="#160d28" opacity="0.66"/>
  <text x="400" y="140" fill="#9b8bc4" font-family="Inter, Segoe UI, Arial, sans-serif" font-size="12">packages &gt; santi020k-theme &gt; contrast.ts</text>
  
    
    <text x="382" y="170" fill="#7b65a8" font-family="JetBrains Mono, Fira Code, SFMono-Regular, Consolas, monospace" font-size="16">01</text>
    <text x="420" y="170" fill="#b68cff" font-family="JetBrains Mono, Fira Code, SFMono-Regular, Consolas, monospace" font-size="18" font-style="italic">import </text>
<text x="494.9" y="170" fill="#f7f2ff" font-family="JetBrains Mono, Fira Code, SFMono-Regular, Consolas, monospace" font-size="18">{ createTheme } </text>
<text x="666.0999999999999" y="170" fill="#b68cff" font-family="JetBrains Mono, Fira Code, SFMono-Regular, Consolas, monospace" font-size="18" font-style="italic">from </text>
<text x="719.5999999999999" y="170" fill="#ffc060" font-family="JetBrains Mono, Fira Code, SFMono-Regular, Consolas, monospace" font-size="18">&quot;@santi020k/theme&quot;</text>
  

    
    <text x="382" y="205" fill="#7b65a8" font-family="JetBrains Mono, Fira Code, SFMono-Regular, Consolas, monospace" font-size="16">02</text>
    
  

    
    <text x="382" y="240" fill="#7b65a8" font-family="JetBrains Mono, Fira Code, SFMono-Regular, Consolas, monospace" font-size="16">03</text>
    <text x="420" y="240" fill="#b68cff" font-family="JetBrains Mono, Fira Code, SFMono-Regular, Consolas, monospace" font-size="18" font-style="italic">const </text>
<text x="484.2" y="240" fill="#f7f2ff" font-family="JetBrains Mono, Fira Code, SFMono-Regular, Consolas, monospace" font-size="18">palette </text>
<text x="569.8" y="240" fill="#aa9bcf" font-family="JetBrains Mono, Fira Code, SFMono-Regular, Consolas, monospace" font-size="18">= </text>
<text x="591.1999999999999" y="240" fill="#aa9bcf" font-family="JetBrains Mono, Fira Code, SFMono-Regular, Consolas, monospace" font-size="18">{</text>
  

    
    <text x="382" y="275" fill="#7b65a8" font-family="JetBrains Mono, Fira Code, SFMono-Regular, Consolas, monospace" font-size="16">04</text>
    <text x="420" y="275" fill="#c9a7ff" font-family="JetBrains Mono, Fira Code, SFMono-Regular, Consolas, monospace" font-size="18">  canvas</text>
<text x="505.6" y="275" fill="#aa9bcf" font-family="JetBrains Mono, Fira Code, SFMono-Regular, Consolas, monospace" font-size="18">: </text>
<text x="527" y="275" fill="#ffc060" font-family="JetBrains Mono, Fira Code, SFMono-Regular, Consolas, monospace" font-size="18">&quot;deep indigo&quot;</text>
<text x="666.1" y="275" fill="#aa9bcf" font-family="JetBrains Mono, Fira Code, SFMono-Regular, Consolas, monospace" font-size="18">,</text>
  

    
    <text x="382" y="310" fill="#7b65a8" font-family="JetBrains Mono, Fira Code, SFMono-Regular, Consolas, monospace" font-size="16">05</text>
    <text x="420" y="310" fill="#c9a7ff" font-family="JetBrains Mono, Fira Code, SFMono-Regular, Consolas, monospace" font-size="18">  accent</text>
<text x="505.6" y="310" fill="#aa9bcf" font-family="JetBrains Mono, Fira Code, SFMono-Regular, Consolas, monospace" font-size="18">: </text>
<text x="527" y="310" fill="#ffc060" font-family="JetBrains Mono, Fira Code, SFMono-Regular, Consolas, monospace" font-size="18">&quot;violet&quot;</text>
<text x="612.6" y="310" fill="#aa9bcf" font-family="JetBrains Mono, Fira Code, SFMono-Regular, Consolas, monospace" font-size="18">,</text>
  

    
    <text x="382" y="345" fill="#7b65a8" font-family="JetBrains Mono, Fira Code, SFMono-Regular, Consolas, monospace" font-size="16">06</text>
    <text x="420" y="345" fill="#c9a7ff" font-family="JetBrains Mono, Fira Code, SFMono-Regular, Consolas, monospace" font-size="18">  contrast</text>
<text x="527" y="345" fill="#aa9bcf" font-family="JetBrains Mono, Fira Code, SFMono-Regular, Consolas, monospace" font-size="18">: </text>
<text x="548.4" y="345" fill="#60c8e0" font-family="JetBrains Mono, Fira Code, SFMono-Regular, Consolas, monospace" font-size="18">4.8</text>
<text x="580.5" y="345" fill="#aa9bcf" font-family="JetBrains Mono, Fira Code, SFMono-Regular, Consolas, monospace" font-size="18">,</text>
  

    
    <text x="382" y="380" fill="#7b65a8" font-family="JetBrains Mono, Fira Code, SFMono-Regular, Consolas, monospace" font-size="16">07</text>
    <text x="420" y="380" fill="#aa9bcf" font-family="JetBrains Mono, Fira Code, SFMono-Regular, Consolas, monospace" font-size="18">}</text>
  

    
    <text x="382" y="415" fill="#7b65a8" font-family="JetBrains Mono, Fira Code, SFMono-Regular, Consolas, monospace" font-size="16">08</text>
    
  

    
    <text x="382" y="450" fill="#7b65a8" font-family="JetBrains Mono, Fira Code, SFMono-Regular, Consolas, monospace" font-size="16">09</text>
    <text x="420" y="450" fill="#b68cff" font-family="JetBrains Mono, Fira Code, SFMono-Regular, Consolas, monospace" font-size="18" font-style="italic">export </text>
<text x="494.9" y="450" fill="#b68cff" font-family="JetBrains Mono, Fira Code, SFMono-Regular, Consolas, monospace" font-size="18" font-style="italic">function </text>
<text x="591.1999999999999" y="450" fill="#d9beff" font-family="JetBrains Mono, Fira Code, SFMono-Regular, Consolas, monospace" font-size="18">applyWorkbench</text>
<text x="740.9999999999999" y="450" fill="#aa9bcf" font-family="JetBrains Mono, Fira Code, SFMono-Regular, Consolas, monospace" font-size="18">() {</text>
  

    <rect x="376" y="462" width="756" height="30" fill="#160d28" opacity="0.76"/>
    <text x="382" y="485" fill="#ffffff" font-family="JetBrains Mono, Fira Code, SFMono-Regular, Consolas, monospace" font-size="16">10</text>
    <text x="420" y="485" fill="#b68cff" font-family="JetBrains Mono, Fira Code, SFMono-Regular, Consolas, monospace" font-size="18" font-style="italic">  return </text>
<text x="516.3" y="485" fill="#d9beff" font-family="JetBrains Mono, Fira Code, SFMono-Regular, Consolas, monospace" font-size="18">createTheme</text>
<text x="634" y="485" fill="#aa9bcf" font-family="JetBrains Mono, Fira Code, SFMono-Regular, Consolas, monospace" font-size="18">({ palette })</text>
  

    
    <text x="382" y="520" fill="#7b65a8" font-family="JetBrains Mono, Fira Code, SFMono-Regular, Consolas, monospace" font-size="16">11</text>
    <text x="420" y="520" fill="#aa9bcf" font-family="JetBrains Mono, Fira Code, SFMono-Regular, Consolas, monospace" font-size="18">}</text>
  

    
    <text x="382" y="555" fill="#7b65a8" font-family="JetBrains Mono, Fira Code, SFMono-Regular, Consolas, monospace" font-size="16">12</text>
    
  

    
    <text x="382" y="590" fill="#7b65a8" font-family="JetBrains Mono, Fira Code, SFMono-Regular, Consolas, monospace" font-size="16">13</text>
    <text x="420" y="590" fill="#9b8bc4" font-family="JetBrains Mono, Fira Code, SFMono-Regular, Consolas, monospace" font-size="18" font-style="italic">// Semantic tokens stay expressive without noise.</text>
  
  <rect x="1160" y="132" width="76" height="3" rx="2" fill="#a56dff" opacity="0.78"/>
<rect x="1160" y="141" width="48" height="3" rx="2" fill="#aa9bcf" opacity="0.32"/>
<rect x="1160" y="150" width="92" height="3" rx="2" fill="#aa9bcf" opacity="0.32"/>
<rect x="1160" y="159" width="58" height="3" rx="2" fill="#aa9bcf" opacity="0.32"/>
<rect x="1160" y="168" width="110" height="3" rx="2" fill="#aa9bcf" opacity="0.32"/>
<rect x="1160" y="177" width="68" height="3" rx="2" fill="#a56dff" opacity="0.78"/>
<rect x="1160" y="186" width="86" height="3" rx="2" fill="#aa9bcf" opacity="0.32"/>
<rect x="1160" y="195" width="42" height="3" rx="2" fill="#aa9bcf" opacity="0.32"/>
<rect x="1160" y="204" width="76" height="3" rx="2" fill="#aa9bcf" opacity="0.32"/>
<rect x="1160" y="213" width="48" height="3" rx="2" fill="#aa9bcf" opacity="0.32"/>
<rect x="1160" y="222" width="92" height="3" rx="2" fill="#a56dff" opacity="0.78"/>
<rect x="1160" y="231" width="58" height="3" rx="2" fill="#aa9bcf" opacity="0.32"/>
<rect x="1160" y="240" width="110" height="3" rx="2" fill="#aa9bcf" opacity="0.32"/>
<rect x="1160" y="249" width="68" height="3" rx="2" fill="#aa9bcf" opacity="0.32"/>
<rect x="1160" y="258" width="86" height="3" rx="2" fill="#aa9bcf" opacity="0.32"/>
<rect x="1160" y="267" width="42" height="3" rx="2" fill="#a56dff" opacity="0.78"/>
<rect x="1160" y="276" width="76" height="3" rx="2" fill="#aa9bcf" opacity="0.32"/>
<rect x="1160" y="285" width="48" height="3" rx="2" fill="#aa9bcf" opacity="0.32"/>
<rect x="1160" y="294" width="92" height="3" rx="2" fill="#aa9bcf" opacity="0.32"/>
<rect x="1160" y="303" width="58" height="3" rx="2" fill="#aa9bcf" opacity="0.32"/>
<rect x="1160" y="312" width="110" height="3" rx="2" fill="#a56dff" opacity="0.78"/>
<rect x="1160" y="321" width="68" height="3" rx="2" fill="#aa9bcf" opacity="0.32"/>
<rect x="1160" y="330" width="86" height="3" rx="2" fill="#aa9bcf" opacity="0.32"/>
<rect x="1160" y="339" width="42" height="3" rx="2" fill="#aa9bcf" opacity="0.32"/>
<rect x="1160" y="348" width="76" height="3" rx="2" fill="#aa9bcf" opacity="0.32"/>
<rect x="1160" y="357" width="48" height="3" rx="2" fill="#a56dff" opacity="0.78"/>
<rect x="1160" y="366" width="92" height="3" rx="2" fill="#aa9bcf" opacity="0.32"/>
<rect x="1160" y="375" width="58" height="3" rx="2" fill="#aa9bcf" opacity="0.32"/>
<rect x="1160" y="384" width="110" height="3" rx="2" fill="#aa9bcf" opacity="0.32"/>
<rect x="1160" y="393" width="68" height="3" rx="2" fill="#aa9bcf" opacity="0.32"/>
<rect x="1160" y="402" width="86" height="3" rx="2" fill="#a56dff" opacity="0.78"/>
<rect x="1160" y="411" width="42" height="3" rx="2" fill="#aa9bcf" opacity="0.32"/>

  <rect x="374" y="598" width="866" height="98" fill="#0b0614"/>
  <rect x="374" y="598" width="866" height="2" fill="#602cba"/>
  <text x="400" y="630" fill="#9b8bc4" font-family="Inter, Segoe UI, Arial, sans-serif" font-size="12" font-weight="800">TERMINAL</text>
  <text x="400" y="660" fill="#f7f2ff" font-family="JetBrains Mono, Fira Code, SFMono-Regular, Consolas, monospace" font-size="14">$ pnpm run validate:themes</text>
  <text x="400" y="684" fill="#8affb2" font-family="JetBrains Mono, Fira Code, SFMono-Regular, Consolas, monospace" font-size="14">Theme validation passed</text>

  <rect x="40" y="696" width="1200" height="24" fill="#602cba"/>
  <text x="62" y="713" fill="#ffffff" font-family="Inter, Segoe UI, Arial, sans-serif" font-size="12" font-weight="700">santi020k hc dark</text>
  <text x="1066" y="713" fill="#ffffff" font-family="Inter, Segoe UI, Arial, sans-serif" font-size="12">TypeScript</text>
  <text x="1158" y="713" fill="#ffffff" font-family="Inter, Segoe UI, Arial, sans-serif" font-size="12">UTF-8</text>
</svg>
